<?xml version="1.0" encoding="UTF-8" standalone="no"?>
<svg 
    role="img" 
    xmlns="http://www.w3.org/2000/svg" 
    width="1000mm"
    height="1000mm"
    viewBox="0 0 1000 1000"
    style="max-width:1.6em; height: auto;">
    
    <path 
        id="path" 
        style="opacity:1;vector-effect:none;fill:#ff6572;fill-opacity:1;"
        d="M 500 0C 224 0 0 224 0 500C 0 776 224 1000 500 1000C 776 1000 1000 776 1000 500C 1000 224 776 0 500 0C 500 0 500 0 500 0 M 733 205C 733 205 733 332 733 332C 733 332 658 332 658 332C 599 332 587 360 587 402C 587 402 587 493 587 493C 587 493 728 493 728 493C 728 493 710 635 710 635C 710 635 587 635 587 635C 587 635 587 992 587 992C 558 997 529 1000 500 1000C 480 1000 460 999 440 996C 440 996 440 635 440 635C 440 635 317 635 317 635C 317 635 317 493 317 493C 317 493 440 493 440 493C 440 493 440 388 440 388C 440 266 514 199 623 199C 675 199 720 203 733 205C 733 205 733 205 733 205"
        transform="">
    </path>    
</svg>